<svg width="28" height="28" viewBox="0 0 28 28" fill="none" xmlns="http://www.w3.org/2000/svg">
<rect width="28" height="28" rx="5" fill="white"/>
<rect x="0.5" y="0.5" width="27" height="27" rx="4.5" stroke="#4F76BB" stroke-opacity="0.3"/>
<path d="M23.3774 6.425C23.4942 6.54216 23.5598 6.70083 23.5598 6.86625C23.5598 7.03167 23.4942 7.19035 23.3774 7.3075L22.0736 8.6125L19.5736 6.1125L20.8774 4.8075C20.9946 4.69033 21.1535 4.62451 21.3193 4.62451C21.485 4.62451 21.6439 4.69033 21.7611 4.8075L23.3774 6.42375V6.425ZM21.1899 9.495L18.6899 6.995L10.1736 15.5125C10.1048 15.5813 10.0531 15.6652 10.0224 15.7575L9.01614 18.775C8.99789 18.83 8.9953 18.889 9.00866 18.9454C9.02201 19.0018 9.05079 19.0534 9.09177 19.0944C9.13276 19.1354 9.18433 19.1641 9.24073 19.1775C9.29713 19.1908 9.35613 19.1883 9.41114 19.17L12.4286 18.1638C12.5208 18.1335 12.6047 18.0821 12.6736 18.0138L21.1899 9.495Z" fill="#0382E9"/>
<path fill-rule="evenodd" clip-rule="evenodd" d="M5.25 20.875C5.25 21.3723 5.44754 21.8492 5.79917 22.2008C6.15081 22.5525 6.62772 22.75 7.125 22.75H20.875C21.3723 22.75 21.8492 22.5525 22.2008 22.2008C22.5525 21.8492 22.75 21.3723 22.75 20.875V13.375C22.75 13.2092 22.6842 13.0503 22.5669 12.9331C22.4497 12.8158 22.2908 12.75 22.125 12.75C21.9592 12.75 21.8003 12.8158 21.6831 12.9331C21.5658 13.0503 21.5 13.2092 21.5 13.375V20.875C21.5 21.0408 21.4342 21.1997 21.3169 21.3169C21.1997 21.4342 21.0408 21.5 20.875 21.5H7.125C6.95924 21.5 6.80027 21.4342 6.68306 21.3169C6.56585 21.1997 6.5 21.0408 6.5 20.875V7.125C6.5 6.95924 6.56585 6.80027 6.68306 6.68306C6.80027 6.56585 6.95924 6.5 7.125 6.5H15.25C15.4158 6.5 15.5747 6.43415 15.6919 6.31694C15.8092 6.19973 15.875 6.04076 15.875 5.875C15.875 5.70924 15.8092 5.55027 15.6919 5.43306C15.5747 5.31585 15.4158 5.25 15.25 5.25H7.125C6.62772 5.25 6.15081 5.44754 5.79917 5.79917C5.44754 6.15081 5.25 6.62772 5.25 7.125V20.875Z" fill="#0382E9"/>
</svg>
