<svg width="47" height="40" viewBox="0 0 47 40" fill="none" xmlns="http://www.w3.org/2000/svg">
<path d="M25.7151 0.835933C25.1275 0.300685 24.3308 0 23.5 0C22.6692 0 21.8725 0.300685 21.2849 0.835933L0.459407 19.8109C0.313757 19.9436 0.198221 20.1012 0.119396 20.2746C0.0405708 20.448 0 20.6339 0 20.8216C0 21.0093 0.0405708 21.1952 0.119396 21.3686C0.198221 21.542 0.313757 21.6996 0.459407 21.8323C0.75356 22.1004 1.15252 22.2509 1.56851 22.2509C1.77449 22.2509 1.97846 22.214 2.16876 22.1421C2.35906 22.0703 2.53197 21.965 2.67762 21.8323L4.70158 19.9851V35.0971C4.70158 36.2329 5.19672 37.3222 6.07807 38.1254C6.95941 38.9285 8.15477 39.3797 9.40119 39.3797H37.5988C38.8452 39.3797 40.0406 38.9285 40.9219 38.1254C41.8033 37.3222 42.2984 36.2329 42.2984 35.0971V19.9851L44.3224 21.8323C44.6165 22.1004 45.0155 22.2509 45.4315 22.2509C45.8475 22.2509 46.2464 22.1004 46.5406 21.8323C46.8347 21.5642 47 21.2007 47 20.8216C47 20.4425 46.8347 20.0789 46.5406 19.8109L39.1653 13.0929V3.69103C39.1653 3.31242 39.0003 2.94932 38.7065 2.6816C38.4127 2.41388 38.0143 2.26348 37.5988 2.26348H34.4657C34.0503 2.26348 33.6518 2.41388 33.358 2.6816C33.0643 2.94932 32.8992 3.31242 32.8992 3.69103V7.38266L25.7151 0.835933ZM39.1653 17.13V35.0971C39.1653 35.4757 39.0003 35.8388 38.7065 36.1065C38.4127 36.3742 38.0143 36.5246 37.5988 36.5246H9.40119C8.98572 36.5246 8.58726 36.3742 8.29348 36.1065C7.9997 35.8388 7.83465 35.4757 7.83465 35.0971V17.13L23.5 2.85449L39.1653 17.13Z" fill="white"/>
</svg>
