<svg width="28" height="28" viewBox="0 0 28 28" fill="none" xmlns="http://www.w3.org/2000/svg">
<rect width="28" height="28" rx="5" fill="white"/>
<rect x="0.5" y="0.5" width="27" height="27" rx="4.5" stroke="#4F76BB" stroke-opacity="0.3"/>
<path d="M10.875 10.875C11.0408 10.875 11.1997 10.9408 11.3169 11.0581C11.4342 11.1753 11.5 11.3342 11.5 11.5V19C11.5 19.1658 11.4342 19.3247 11.3169 19.4419C11.1997 19.5592 11.0408 19.625 10.875 19.625C10.7092 19.625 10.5503 19.5592 10.4331 19.4419C10.3158 19.3247 10.25 19.1658 10.25 19V11.5C10.25 11.3342 10.3158 11.1753 10.4331 11.0581C10.5503 10.9408 10.7092 10.875 10.875 10.875ZM14 10.875C14.1658 10.875 14.3247 10.9408 14.4419 11.0581C14.5592 11.1753 14.625 11.3342 14.625 11.5V19C14.625 19.1658 14.5592 19.3247 14.4419 19.4419C14.3247 19.5592 14.1658 19.625 14 19.625C13.8342 19.625 13.6753 19.5592 13.5581 19.4419C13.4408 19.3247 13.375 19.1658 13.375 19V11.5C13.375 11.3342 13.4408 11.1753 13.5581 11.0581C13.6753 10.9408 13.8342 10.875 14 10.875ZM17.75 11.5C17.75 11.3342 17.6842 11.1753 17.5669 11.0581C17.4497 10.9408 17.2908 10.875 17.125 10.875C16.9592 10.875 16.8003 10.9408 16.6831 11.0581C16.5658 11.1753 16.5 11.3342 16.5 11.5V19C16.5 19.1658 16.5658 19.3247 16.6831 19.4419C16.8003 19.5592 16.9592 19.625 17.125 19.625C17.2908 19.625 17.4497 19.5592 17.5669 19.4419C17.6842 19.3247 17.75 19.1658 17.75 19V11.5Z" fill="#A30000"/>
<path d="M22.125 7.75C22.125 8.08152 21.9933 8.39946 21.7589 8.63388C21.5245 8.8683 21.2065 9 20.875 9H20.25V20.25C20.25 20.913 19.9866 21.5489 19.5178 22.0178C19.0489 22.4866 18.413 22.75 17.75 22.75H10.25C9.58696 22.75 8.95107 22.4866 8.48223 22.0178C8.01339 21.5489 7.75 20.913 7.75 20.25V9H7.125C6.79348 9 6.47554 8.8683 6.24112 8.63388C6.0067 8.39946 5.875 8.08152 5.875 7.75V6.5C5.875 6.16848 6.0067 5.85054 6.24112 5.61612C6.47554 5.3817 6.79348 5.25 7.125 5.25H11.5C11.5 4.91848 11.6317 4.60054 11.8661 4.36612C12.1005 4.1317 12.4185 4 12.75 4H15.25C15.5815 4 15.8995 4.1317 16.1339 4.36612C16.3683 4.60054 16.5 4.91848 16.5 5.25H20.875C21.2065 5.25 21.5245 5.3817 21.7589 5.61612C21.9933 5.85054 22.125 6.16848 22.125 6.5V7.75ZM9.1475 9L9 9.07375V20.25C9 20.5815 9.1317 20.8995 9.36612 21.1339C9.60054 21.3683 9.91848 21.5 10.25 21.5H17.75C18.0815 21.5 18.3995 21.3683 18.6339 21.1339C18.8683 20.8995 19 20.5815 19 20.25V9.07375L18.8525 9H9.1475ZM7.125 7.75H20.875V6.5H7.125V7.75Z" fill="#A30000"/>
</svg>
